<svg xmlns="http://www.w3.org/2000/svg" viewBox="0 0 24 22" class="gym-logo gym-logo--colored">
    <g fill="#FF7F66" fill-rule="evenodd">
        <path fill-rule="nonzero" d="M15.386 21.965c-1.32 0-2.16-.24-3.11-.64-.953.405-1.754.64-3.019.64C4.027 21.965 0 17.148 0 10.983 0 4.818 4.012 0 9.134 0c1.199 0 2.323.308 3.012.653C12.898.297 14.054 0 15.082 0c3.447 0 6.587 2.328 6.587 4.896 0 1.446-1.09 2.94-2.915 2.94-1.952 0-3.022-1.473-4.055-2.897-.734-1.014-1.485-2.127-2.59-2.807-2.669 1.467-4.54 4.926-4.54 8.851 0 4.01 1.906 7.426 4.689 8.861 2.343-1.226 4.117-3.878 4.117-6.718-.721.785-1.616 1.529-2.954 1.529-2.05 0-3.274-1.633-3.274-3.211 0-1.821 1.482-3.248 3.375-3.248 1.205 0 2.578.696 3.489 2.216.714-.737 1.757-1.37 2.906-1.37 2.721 0 3.656 2.428 3.656 3.959 0 4.782-3.79 8.964-8.187 8.964zm-1.433-1.536c.336.058.922.138 1.365.138 3.629 0 6.812-3.553 6.812-7.566 0-.7-.354-2.527-2.213-2.527-.942 0-1.661.573-2.34 1.315.13.378.193.929.193 1.433 0 2.911-1.473 5.595-3.817 7.207zM9.134 1.399c-4.312 0-7.691 4.228-7.691 9.584 0 5.267 3.472 9.584 7.962 9.584.405 0 .794-.053 1.187-.133-2.656-1.907-4.467-5.402-4.467-9.451 0-3.992 1.8-7.47 4.4-9.397a5.183 5.183 0 0 0-1.391-.187zm4.41 8.24c-1.1 0-1.954.776-1.954 1.805 0 .683.52 1.768 1.853 1.768 1.04 0 1.863-.893 2.6-1.74-.538-1.15-1.677-1.833-2.5-1.833zm.107-8.024c.895.756 1.617 1.65 2.216 2.476 1.036 1.428 1.73 2.303 2.887 2.303 1.072 0 1.472-.919 1.472-1.498 0-1.569-2.295-3.497-5.144-3.497-.47 0-.977.095-1.431.216z"></path>
    </g>
</svg>